<svg xmlns="http://www.w3.org/2000/svg" xmlns:xlink="http://www.w3.org/1999/xlink" version="1.1" x="0px" y="0px" viewBox="0 0 64 80" style="enable-background:new 0 0 64 64;" xml:space="preserve"><g><path d="M60,1H4C2.346,1,1,2.346,1,4v42c0,1.654,1.346,3,3,3h23v8H17c-1.654,0-3,1.346-3,3v2c0,0.553,0.448,1,1,1h34   c0.552,0,1-0.447,1-1v-2c0-1.654-1.346-3-3-3H37v-8h23c1.654,0,3-1.346,3-3V4C63,2.346,61.654,1,60,1z M4,3h56c0.551,0,1,0.449,1,1   v5H3V4C3,3.449,3.449,3,4,3z M61,11v30H3V11H61z M48,60v1H16v-1c0-0.552,0.449-1,1-1h30C47.551,59,48,59.448,48,60z M35,57h-6v-8h6   V57z M60,47H4c-0.551,0-1-0.448-1-1v-3h58v3C61,46.552,60.551,47,60,47z"/><rect x="5" y="5" width="2" height="2"/><rect x="9" y="5" width="2" height="2"/><rect x="13" y="5" width="2" height="2"/><path d="M32,39c7.168,0,13-5.832,13-13c0-2.742-0.844-5.364-2.44-7.584l-1.624,1.168C42.286,21.461,43,23.68,43,26   c0,6.065-4.935,11-11,11s-11-4.935-11-11s4.935-11,11-11c1.258,0,2.492,0.21,3.667,0.625l0.666-1.886   C34.943,13.249,33.486,13,32,13c-7.168,0-13,5.832-13,13C19,33.168,24.832,39,32,39z"/><path d="M40.599,16.25c-0.646-0.571-1.352-1.079-2.097-1.51L37.5,16.471c0.631,0.365,1.229,0.795,1.776,1.278L40.599,16.25z"/><path d="M27.447,19.105c-0.31-0.155-0.678-0.139-0.973,0.044C26.18,19.332,26,19.653,26,20v12c0,0.347,0.18,0.668,0.474,0.851   C26.635,32.95,26.817,33,27,33c0.153,0,0.306-0.035,0.447-0.105l12-6C39.786,26.725,40,26.379,40,26s-0.214-0.725-0.553-0.895   L27.447,19.105z M28,30.382v-8.764L36.764,26L28,30.382z"/></g><text x="0" y="79" fill="#000000" font-size="5px" font-weight="bold" font-family="'Helvetica Neue', Helvetica, Arial-Unicode, Arial, Sans-serif">Created by Template</text><text x="0" y="84" fill="#000000" font-size="5px" font-weight="bold" font-family="'Helvetica Neue', Helvetica, Arial-Unicode, Arial, Sans-serif">from the Noun Project</text></svg>